<?xml version="1.0" encoding="iso-8859-1"?>
<!-- Generator: Adobe Illustrator 16.0.0, SVG Export Plug-In . SVG Version: 6.00 Build 0)  -->
<!DOCTYPE svg PUBLIC "-//W3C//DTD SVG 1.1//EN" "http://www.w3.org/Graphics/SVG/1.1/DTD/svg11.dtd">
<svg version="1.1" id="Capa_1" xmlns="http://www.w3.org/2000/svg" xmlns:xlink="http://www.w3.org/1999/xlink" x="0px" y="0px"
	 width="376.079px" height="376.079px" viewBox="0 0 376.079 376.079" style="enable-background:new 0 0 376.079 376.079;"
	 xml:space="preserve" fill="#F3BE44">
<g>
	<g>
		<g>
			<path d="M306.401,126.975c0-5.918-3.551-14.053-7.891-18.076L195.93,3.015c-4.34-4.02-11.441-4.02-15.78,0.001L77.568,108.899
				c-4.34,4.021-7.889,12.156-7.889,18.075l-0.001,238.344c0,5.916,4.843,10.758,10.76,10.76l215.203,0.001
				c5.918-0.002,10.76-4.844,10.76-10.763V126.975z M188.413,44.909c12.927,0,23.41,10.479,23.41,23.408
				c0,12.93-10.48,23.409-23.41,23.409s-23.409-10.479-23.409-23.409C165.004,55.389,175.484,44.909,188.413,44.909z
				 M271.428,352.565l-166.78-0.001c-5.917,0.001-10.76-4.843-10.76-10.761l-0.001-194.123c0-5.919,4.842-10.761,10.761-10.761
				l166.782,0.001c5.918,0,10.76,4.842,10.76,10.759v194.123C282.19,347.723,277.348,352.565,271.428,352.565z"/>
		</g>
		<g>
			<path d="M180.37,234.079c4.496-4.876,6.973-11.417,6.973-18.418c0-13.332-9.524-26.829-27.728-26.829
				c-8.47,0-15.617,2.91-20.668,8.415c-4.473,4.876-6.936,11.415-6.936,18.414c0,13.332,9.482,26.828,27.604,26.828
				C168.12,242.489,175.297,239.581,180.37,234.079z M159.615,201.307c9.975,0,14.517,7.445,14.517,14.363
				c0,3.763-1.267,7.247-3.567,9.808c-2.569,2.86-6.3,4.373-10.787,4.373c-10.227,0-14.885-7.443-14.885-14.36
				C144.893,208.43,149.445,201.307,159.615,201.307z"/>
			<g>
				<path d="M225.821,199.182c-1.65,0.03-3.902,1.06-5.007,2.285l-82.535,91.765c-1.104,1.228-0.656,2.23,0.994,2.23h11.697
					c1.65,0,3.9-1.006,5.001-2.235l82.432-92.075c1.102-1.229,0.65-2.212-0.998-2.182L225.821,199.182z"/>
			</g>
			<path d="M216.87,252.732c-8.31,0-15.32,2.855-20.274,8.256c-4.388,4.782-6.806,11.197-6.806,18.062
				c0,13.078,9.301,26.318,27.08,26.318c8.344,0,15.383-2.854,20.359-8.25c4.41-4.784,6.84-11.2,6.84-18.068
				C244.067,265.974,234.726,252.732,216.87,252.732z M217.03,293.292c-9.951,0-14.482-7.47-14.482-14.41
				c0-3.778,1.266-7.275,3.563-9.846c2.563-2.87,6.283-4.387,10.757-4.387c9.949,0,14.48,7.471,14.48,14.411
				c0,3.777-1.266,7.275-3.562,9.847C225.223,291.775,221.502,293.292,217.03,293.292z"/>
		</g>
	</g>
</g>
<g>
</g>
<g>
</g>
<g>
</g>
<g>
</g>
<g>
</g>
<g>
</g>
<g>
</g>
<g>
</g>
<g>
</g>
<g>
</g>
<g>
</g>
<g>
</g>
<g>
</g>
<g>
</g>
<g>
</g>
</svg>
