<?xml version="1.0" standalone="no"?><!DOCTYPE svg PUBLIC "-//W3C//DTD SVG 1.1//EN" "http://www.w3.org/Graphics/SVG/1.1/DTD/svg11.dtd"><svg class="icon" height="512" viewBox="0 0 1025 1024" version="1.1" xmlns="http://www.w3.org/2000/svg"><path d="M491.818825 85.1211c-33.776781 24.25787-62.387701 53.024127-85.673811 84.861l1.575046-0.617736 201.042288 223.544488-0.177012 1.195734 215.864334 0.166175c0.003612 0.003612 0.003612 0.007225 0.003612 0.01445l0.018062-0.01445 191.154903-213.902752 9.359961-8.785575C901.493242 0.852548 663.061684-37.923919 491.818825 85.1211L491.818825 85.1211zM800.271275 344.801324l-50.773546 0 44.404726-129.500538-24.395144-7.434504-49.15515 136.935042-46.236258-137.70089-24.203682 8.030565 35.221777 129.670325-52.232991 0-158.393232-177.239592c14.124836-14.854558 29.817492-28.618145 47.074356-41.01621 136.953105-98.397 323.487633-77.386759 435.579582 42.703243L800.271275 344.801324 800.271275 344.801324zM771.364131 411.899711l-102.016715 0c-28.170196 0-51.008357 22.834549-51.008357 51.008357l-51.008357 510.076349c0 28.181034 22.838161 51.01197 51.008357 51.01197l204.03343 0c28.166584 0 51.008357-22.830936 51.008357-51.01197l-51.008357-510.076349C822.372489 434.73426 799.534327 411.899711 771.364131 411.899711L771.364131 411.899711zM388.801451 80.349c0 0-35.340989-76.512536-76.512536-76.512536-41.167935 0-229.533996 96.052494-229.533996 229.537608l0 229.533996 306.046532 0L388.801451 80.349 388.801451 80.349zM337.793093 112.225611l0 299.6741-204.03343 0L133.759664 226.994415c13.080826-85.576273 147.6533-172.149594 178.529251-172.149594C343.168478 54.844822 337.793093 112.225611 337.793093 112.225611L337.793093 112.225611zM6.242383 972.984418c0 28.181034 22.834549 51.01197 51.01197 51.01197l357.054889 0c28.170196 0 51.008357-22.830936 51.008357-51.01197L465.317599 488.412247 6.242383 488.412247 6.242383 972.984418 6.242383 972.984418zM82.754919 603.177439c0-7.044355 5.707734-12.748477 12.748477-12.748477l25.504179 0c7.044355 0 12.748477 5.707734 12.748477 12.748477l0 306.050144c0 7.044355-5.704122 12.748477-12.748477 12.748477l-25.504179 0c-7.044355 0-12.748477-5.707734-12.748477-12.748477L82.754919 603.177439 82.754919 603.177439zM286.788348 105.845954c0 0 39.722939 47.294718-25.507791 76.512536-65.227118 29.221431-102.016715 25.507791-102.016715 25.507791s99.946758 36.641485 153.028685-51.008357C335.506387 118.522181 286.788348 105.845954 286.788348 105.845954L286.788348 105.845954zM286.788348 105.845954" fill="#F3BE44" /></svg>