<?xml version="1.0" encoding="UTF-8" standalone="no"?>
<svg
   xmlns:dc="http://purl.org/dc/elements/1.1/"
   xmlns:cc="http://creativecommons.org/ns#"
   xmlns:rdf="http://www.w3.org/1999/02/22-rdf-syntax-ns#"
   xmlns:svg="http://www.w3.org/2000/svg"
   xmlns="http://www.w3.org/2000/svg"
   xmlns:sodipodi="http://sodipodi.sourceforge.net/DTD/sodipodi-0.dtd"
   xmlns:inkscape="http://www.inkscape.org/namespaces/inkscape"
   viewBox="0 0 27.396252 27.445992"
   enable-background="new 0 0 50 50"
   id="svg2"
   version="1.1"
   inkscape:version="0.91 r13725"
   sodipodi:docname="close.svg"
   width="27.396252"
   height="27.445992">
  <metadata
     id="metadata12">
    <rdf:RDF>
      <cc:Work
         rdf:about="">
        <dc:format>image/svg+xml</dc:format>
        <dc:type
           rdf:resource="http://purl.org/dc/dcmitype/StillImage" />
        <dc:title></dc:title>
      </cc:Work>
    </rdf:RDF>
  </metadata>
  <defs
     id="defs10" />
  <sodipodi:namedview
     pagecolor="#ffffff"
     bordercolor="#666666"
     borderopacity="1"
     objecttolerance="10"
     gridtolerance="10"
     guidetolerance="10"
     inkscape:pageopacity="0"
     inkscape:pageshadow="2"
     inkscape:window-width="1366"
     inkscape:window-height="705"
     id="namedview8"
     showgrid="false"
     fit-margin-top="0"
     fit-margin-left="0"
     fit-margin-right="0"
     fit-margin-bottom="0"
     inkscape:zoom="4.72"
     inkscape:cx="13.756138"
     inkscape:cy="13.722996"
     inkscape:window-x="-8"
     inkscape:window-y="-8"
     inkscape:window-maximized="1"
     inkscape:current-layer="svg2" />
  <path
     d="m 26.060138,0.00499544 1.414,1.41399996 -26.0220005,26.0199996 -1.41399996,-1.413 z"
     id="path4"
     inkscape:connector-curvature="0" />
  <path
     d="M 1.4521375,0.00499544 27.474138,26.024995 l -1.414,1.415 L 0.03813754,1.4199954 Z"
     id="path6"
     inkscape:connector-curvature="0" />
  <path
     style="fill:black;fill-opacity:1;stroke:#000000;stroke-width:0.21186441;stroke-opacity:1"
     d="m 0.76886854,26.646745 -0.620661,-0.647831 6.13522196,-6.13796 6.1352225,-6.137959 -6.1352225,-6.1379586 -6.13522196,-6.137959 0.620661,-0.64783096 0.62066196,-0.647831 6.152871,6.15021896 6.1528715,6.1502196 6.139999,-6.1427376 6.139999,-6.14273796 0.635594,0.635593 0.635593,0.63559296 -6.139977,6.142716 -6.139976,6.1427146 6.139976,6.142715 6.139977,6.142715 -0.635593,0.635593 -0.635594,0.635594 -6.139999,-6.142738 -6.139999,-6.142738 -6.1528715,6.150219 -6.152871,6.150221 -0.62066196,-0.647831 z"
     id="path3340"
     inkscape:connector-curvature="0" />
</svg>
